<svg width="200" height="1020" xmlns="http://www.w3.org/2000/svg"><path stroke-width="5" d="M144 52.8c-4 0-3.493.742-12 6-3.804 2.35-10 10-16 16-10 10-18.654 21.483-28 34-8.628 11.556-12.664 16.458-16 24-2.917 6.594-4 8-4 8v14c0 10 6 18 12 26s9.802 17.801 20 28c5.1 5.098 11.385 10.821 18 20 5.23 7.255 6.509 15.642 12 24 8.855 13.475 14.297 23.89 20 40 4.222 11.923 8.993 21.815 10 30 .733 5.954-.96 10.077 0 16 1.013 6.242 2 10 2 18s-4.261 16.257-6 22c-2.09 6.9-8 14-10 18-6 12-8.442 20.636-14 32-6.336 12.955-8.097 20.577-12 30-2.76 6.661-8.887 14.76-12 26-3.203 11.564-2.995 21.85-4 32-1.182 11.94 0 24 0 39.999s-.617 28.144 2 38c1.624 6.113 4.321 17.927 6 26 2.477 11.91 5.05 24.169 8 38 3.037 14.24 5.734 26.069 10 42 3.766 14.065 7.094 27.69 10 40 3.25 13.764 6.232 23.928 8 30 2.306 7.917 1.695 10.083 4 18 1.768 6.072 4.993 11.815 6 20 .978 7.94 0 18 0 28 0 8-1.807 16.034-4 28-1.838 10.03-4.718 20.103-6 28-2.026 12.486-7.08 20.107-8 24-2.055 8.705-7.064 14.398-10 20-4.64 8.858-6 12-6 16s-2 8-2 18c0 8-.718 18.103-2 26-2.026 12.485-4 20-4 24v8c0 4-1.838 8.214 0 16 1.028 4.352 2.993 7.815 4 16 .489 3.97 0 8 0 8v8" stroke="#000" fill="none"/></svg>