<svg width="600" height="250" xmlns="http://www.w3.org/2000/svg"><g opacity=".98"/><path transform="rotate(-35)" transform-origin="100 350px" opacity=".588" fill="#ffa" stroke="#000" stroke-width=".346" d="M525.563 507.22 129.45 137.145l-.258-.295-.181-.324-.106-.344-.03-.352.047-.351.12-.34.197-.317.271-.285 24.593.326.655-22.038 24.592.326.655-22.038 24.593.326.654-22.038 24.593.326.655-22.038.329-.231.362-.163.383-.094.393-.027.392.041.379.109.354.176.318.243 396.111 370.075.258.294.182.325.105.343.03.353-.046.351-.121.34-.197.317-.271.285-24.592-.326-.655 22.038-24.593-.326-.655 22.038-24.592-.326-.655 22.038-24.592-.326-.655 22.038-.33.231-.361.163-.383.094-.394.027-.392-.041-.378-.109-.354-.176z"/></svg>