<?xml version="1.0" ?><svg id="Layer_1" style="enable-background:new 0 0 50 50;" version="1.1" viewBox="0 0 50 50" xml:space="preserve" xmlns="http://www.w3.org/2000/svg" xmlns:xlink="http://www.w3.org/1999/xlink"><g id="Layer_1_1_"><path d="M15,1H1v14h14V1z M13,13H3V3h10V13z"/><path d="M32,1H18v14h14V1z M30,13H20V3h10V13z"/><path d="M35,15h14V1H35V15z M37,3h10v10H37V3z"/><path d="M15,18H1v14h14V18z M13,30H3V20h10V30z"/><path d="M18,32h14V18H18V32z M20,20h10v10H20V20z"/><path d="M35,32h14V18H35V32z M37,20h10v10H37V20z"/><path d="M15,35H1v14h14V35z M13,47H3V37h10V47z"/><path d="M18,49h14V35H18V49z M20,37h10v10H20V37z"/><path d="M35,49h14V35H35V49z M37,37h10v10H37V37z"/></g></svg>