<?xml version="1.0" encoding="iso-8859-1"?>
<!-- Generator: Adobe Illustrator 18.0.0, SVG Export Plug-In . SVG Version: 6.00 Build 0)  -->
<!DOCTYPE svg PUBLIC "-//W3C//DTD SVG 1.1//EN" "http://www.w3.org/Graphics/SVG/1.1/DTD/svg11.dtd">
<svg version="1.1" id="Capa_1" xmlns="http://www.w3.org/2000/svg" xmlns:xlink="http://www.w3.org/1999/xlink" x="0px" y="0px"
	 viewBox="0 0 294 294" style="enable-background:new 0 0 294 294;" fill="green" xml:space="preserve">
<g>
	<path d="M279,250H15c-8.284,0-15,6.716-15,15s6.716,15,15,15h264c8.284,0,15-6.716,15-15S287.284,250,279,250z"/>
	<path d="M30.5,228h47c5.247,0,9.5-4.253,9.5-9.5v-130c0-5.247-4.253-9.5-9.5-9.5h-47c-5.247,0-9.5,4.253-9.5,9.5v130
		C21,223.747,25.253,228,30.5,228z"/>
	<path d="M123.5,228h47c5.247,0,9.5-4.253,9.5-9.5v-195c0-5.247-4.253-9.5-9.5-9.5h-47c-5.247,0-9.5,4.253-9.5,9.5v195
		C114,223.747,118.253,228,123.5,228z"/>
	<path d="M216.5,228h47c5.247,0,9.5-4.253,9.5-9.5v-105c0-5.247-4.253-9.5-9.5-9.5h-47c-5.247,0-9.5,4.253-9.5,9.5v105
		C207,223.747,211.253,228,216.5,228z"/>
</g>

</svg>
