<?xml version="1.0" standalone="no"?>
<!DOCTYPE svg PUBLIC "-//W3C//DTD SVG 20010904//EN"
 "http://www.w3.org/TR/2001/REC-SVG-20010904/DTD/svg10.dtd">
<svg version="1.0" xmlns="http://www.w3.org/2000/svg"
 width="512.000000pt" height="512.000000pt" viewBox="0 0 512.000000 512.000000"
 preserveAspectRatio="xMidYMid meet">

<g transform="translate(0.000000,512.000000) scale(0.100000,-0.100000)"
fill="#000000" stroke="none">
<path d="M4187 4736 c-75 -27 -117 -86 -117 -161 0 -61 17 -91 107 -188 386
-417 593 -949 593 -1527 0 -583 -209 -1111 -610 -1544 -79 -85 -90 -107 -90
-172 0 -96 73 -166 170 -166 63 0 95 18 172 100 737 782 915 1943 448 2917
-103 214 -268 455 -430 628 -111 118 -163 142 -243 113z"/>
<path d="M3405 3966 c-70 -30 -115 -115 -101 -190 7 -35 17 -49 127 -185 118
-145 197 -310 236 -491 27 -125 24 -373 -5 -495 -45 -191 -133 -364 -260 -511
-78 -91 -102 -134 -102 -184 0 -88 83 -170 170 -170 76 0 155 66 274 228 422
576 382 1364 -97 1905 -89 100 -161 128 -242 93z"/>
<path d="M2744 3461 c-65 -40 -100 -115 -85 -182 10 -44 14 -52 61 -109 111
-136 144 -292 96 -450 -17 -57 -48 -110 -103 -178 -52 -65 -68 -116 -53 -172
12 -46 51 -95 91 -115 43 -23 117 -19 160 8 92 56 210 246 250 402 28 111 28
280 -1 390 -41 162 -165 362 -250 405 -50 26 -125 26 -166 1z"/>
<path d="M1115 3454 c-16 -3 -63 -12 -104 -20 -419 -90 -714 -504 -661 -929
44 -354 281 -631 624 -729 48 -15 100 -27 115 -27 14 -1 -3 -5 -39 -10 -173
-22 -319 -64 -445 -127 -338 -168 -550 -479 -595 -871 -26 -231 0 -318 107
-357 31 -11 227 -13 1078 -14 725 0 1052 3 1080 11 50 14 100 64 114 114 31
114 -12 404 -88 586 -65 156 -189 315 -332 425 -159 122 -403 213 -623 231
l-69 6 84 18 c377 77 647 371 688 749 46 427 -240 829 -657 924 -74 17 -224
28 -277 20z"/>
</g>
</svg>
